#!OML:ASF H:\ManfredETheater\Project 1\Capture day 1\Session 1\subject.ASF
:FULLY-SPECIFIED
:DEGREES
171
root 1.00595 15.9932 -27.0081 -157.061 -21.456 170.153
lowerback 17.9422 -2.33879 -5.83657
upperback -2.26411 -4.36608 0.685335
thorax -12.1471 -1.61682 5.28959
lowerneck -17.096 -5.4996 -8.10932
upperneck 0.197143 -6.40656 5.86937
head 3.19041 -3.12407 2.58973
rclavicle -3.85642e-014 2.8625e-014
rhumerus -85.3813 12.1447 -86.8442
rradius 107.018
rwrist -4.58423
rhand -30.9517 13.991
rfingers 7.12502
rthumb -4.23654 -15.9466
lclavicle -3.85642e-014 2.8625e-014
lhumerus -14.6098 -32.2092 69.521
lradius 143.325
lwrist 13.6362
lhand -18.9457 -16.6994
lfingers 7.12502
lthumb 7.35757 13.1526
rfemur -75.7126 -17.3256 18.1236
rtibia 55.3965
rfoot -18.792 -10.8209
rtoes -36.7432
lfemur 2.80154 -10.4124 -16.2765
ltibia 30.7008
lfoot -2.41751 -13.2781
ltoes -28.9829
172
root 0.950201 16.0184 -27.4745 -156.852 -20.5851 169.932
lowerback 17.588 -2.46216 -5.67818
upperback -2.37434 -4.47861 0.648831
thorax -12.0661 -1.68395 5.16724
lowerneck -17.0883 -5.32367 -8.13872
upperneck 0.488337 -6.14032 5.54404
head 3.24937 -3.00108 2.51407
rclavicle -7.81224e-014 2.94201e-014
rhumerus -86.6385 11.5409 -86.7095
rradius 106.407
rwrist -4.13873
rhand -31.2335 14.2235
rfingers 7.12502
rthumb -4.50863 -15.7086
lclavicle -7.81224e-014 2.94201e-014
lhumerus -17.5235 -34.1756 70.5284
lradius 141.577
lwrist 14.4484
lhand -18.8429 -15.9356
lfingers 7.12502
lthumb 7.45682 13.913
rfemur -75.1856 -16.8492 18.2218
rtibia 55.0052
rfoot -18.8278 -10.0053
rtoes -37.8638
lfemur 4.74441 -11.2475 -17.0695
ltibia 28.239
lfoot 3.78876 -11.8959
ltoes -28.8568
173
root 0.896406 16.0451 -27.9425 -156.668 -19.6583 169.756
lowerback 17.247 -2.5334 -5.50491
upperback -2.44825 -4.52069 0.605963
thorax -11.9617 -1.7217 5.01027
lowerneck -17.1614 -5.17939 -8.20135
upperneck 0.771941 -5.90913 5.27824
head 3.32435 -2.89439 2.4574
rclavicle -3.77691e-015 -1.27222e-014
rhumerus -87.4239 10.759 -86.4317
rradius 105.492
rwrist -3.98315
rhand -31.5727 14.2103
rfingers 7.12502
rthumb -4.83619 -15.7145
lclavicle -3.77691e-015 -1.27222e-014
lhumerus -20.4769 -35.7828 72.0129
lradius 139.37
lwrist 15.6533
lhand -18.7961 -15.0659
lfingers 7.12502
lthumb 7.50192 14.781
rfemur -74.547 -16.2756 18.2766
rtibia 54.9205
rfoot -18.8607 -8.94338
rtoes -38.8349
lfemur 6.41969 -12.0579 -17.9297
ltibia 26.1809
lfoot 9.96386 -10.5384
ltoes -28.384
174
root 0.844331 16.0726 -28.4104 -156.491 -18.7217 169.619
lowerback 16.9363 -2.57365 -5.30429
upperback -2.49119 -4.51784 0.564409
thorax -11.8467 -1.74132 4.82895
lowerneck -17.3203 -5.05602 -8.26469
upperneck 1.0295 -5.7044 5.04793
head 3.40771 -2.80114 2.40825
rclavicle -1.82882e-014 -1.74931e-014
rhumerus -87.7551 9.85425 -86.0411
rradius 104.327
rwrist -4.22862
rhand -31.9171 13.9796
rfingers 7.12502
rthumb -5.16865 -15.9373
lclavicle -1.82882e-014 -1.74931e-014
lhumerus -23.3901 -36.9219 73.8926
lradius 136.761
lwrist 17.1019
lhand -18.7982 -14.1941
lfingers 7.12502
lthumb 7.49992 15.653
rfemur -73.8408 -15.6422 18.2805
rtibia 55.1609
rfoot -18.9651 -7.507
rtoes -39.4615
lfemur 7.74432 -12.7573 -18.8056
ltibia 24.7061
lfoot 15.6882 -9.51562
ltoes -26.9838
175
root 0.795201 16.0996 -28.8741 -156.284 -17.7718 169.505
lowerback 16.6755 -2.58356 -5.10874
upperback -2.51612 -4.47911 0.525825
thorax -11.7438 -1.74308 4.64816
lowerneck -17.5581 -4.93991 -8.29258
upperneck 1.23065 -5.51564 4.82709
head 3.48633 -2.7177 2.35436
rclavicle -7.83212e-014 -2.38542e-015
rhumerus -87.6489 8.8691 -85.5678
rradius 102.95
rwrist -4.90911
rhand -32.2454 13.5803
rfingers 7.12502
rthumb -5.48566 -16.3287
lclavicle -7.83212e-014 -2.38542e-015
lhumerus -26.1816 -37.5465 76.0755
lradius 133.802
lwrist 18.5554
lhand -18.8729 -13.4023
lfingers 7.12502
lthumb 7.4278 16.4473
rfemur -73.1424 -14.9304 18.1992
rtibia 55.7297
rfoot -19.122 -5.84862
rtoes -39.5067
lfemur 8.60716 -13.214 -19.657
ltibia 23.9944
lfoot 20.4735 -8.9645
ltoes -24.5072
176
root 0.749274 16.1252 -29.3318 -156.045 -16.8245 169.416
lowerback 16.4866 -2.57082 -4.92269
upperback -2.52277 -4.41576 0.496418
thorax -11.663 -1.73115 4.48169
lowerneck -17.8528 -4.81469 -8.25109
upperneck 1.33388 -5.33018 4.58458
head 3.54131 -2.63986 2.28269
rclavicle 1.59028e-015 6.36111e-015
rhumerus -87.1179 7.83781 -85.0393
rradius 101.379
rwrist -5.98149
rhand -32.5573 13.0722
rfingers 7.12502
rthumb -5.78685 -16.8288
lclavicle 1.59028e-015 6.36111e-015
lhumerus -28.755 -37.61 78.4363
lradius 130.54
lwrist 19.8337
lhand -18.9402 -12.8082
lfingers 7.12502
lthumb 7.36283 17.0436
rfemur -72.4802 -14.1366 18.0234
rtibia 56.6061
rfoot -19.2863 -4.37186
rtoes -39.1009
lfemur 8.95101 -13.3341 -20.4262
ltibia 24.1763
lfoot 23.9301 -8.72658
ltoes -21.1613
177
root 0.706439 16.1475 -29.7817 -155.77 -15.8809 169.357
lowerback 16.3733 -2.539 -4.75154
upperback -2.51198 -4.33302 0.479365
thorax -11.6062 -1.70743 4.33751
lowerneck -18.1714 -4.66944 -8.12131
upperneck 1.29692 -5.14215 4.3045
head 3.55338 -2.56621 2.18679
rclavicle 4.05521e-014 -1.59028e-014
rhumerus -86.1712 6.77788 -84.4697
rradius 99.6178
rwrist -7.2915
rhand -32.8393 12.4705
rfingers 7.12502
rthumb -6.05911 -17.4228
lclavicle 4.05521e-014 -1.59028e-014
lhumerus -31.0452 -37.1165 80.873
lradius 127.035
lwrist 20.7972
lhand -18.9671 -12.4217
lfingers 7.12502
lthumb 7.33689 17.4311
rfemur -71.8889 -13.2534 17.7607
rtibia 57.7429
rfoot -19.4835 -3.42054
rtoes -38.3916
lfemur 8.76652 -13.099 -21.0861
ltibia 25.2746
lfoot 25.9456 -8.44169
ltoes -17.1107
178
root 0.666404 16.1649 -30.2229 -155.481 -14.9515 169.341
lowerback 16.3439 -2.49555 -4.59162
upperback -2.47248 -4.23889 0.482544
thorax -11.5643 -1.67628 4.22397
lowerneck -18.4817 -4.48745 -7.8942
upperneck 1.08182 -4.93734 3.97552
head 3.50487 -2.4912 2.06379
rclavicle -7.39479e-014 6.36111e-015
rhumerus -84.8043 5.70014 -83.8708
rradius 97.6521
rwrist -8.64095
rhand -33.0804 11.7736
rfingers 7.12502
rthumb -6.29182 -18.1129
lclavicle -7.39479e-014 6.36111e-015
lhumerus -32.9976 -36.0761 83.2905
lradius 123.332
lwrist 21.3059
lhand -18.9764 -12.2385
lfingers 7.12502
lthumb 7.32794 17.6146
rfemur -71.3564 -12.2866 17.4472
rtibia 59.0645
rfoot -19.6761 -3.05952
rtoes -37.2687
lfemur 8.12249 -12.5643 -21.6251
ltibia 27.2022
lfoot 26.6921 -7.86265
ltoes -12.802
179
root 0.629618 16.1763 -30.6569 -155.222 -14.0159 169.411
lowerback 16.4015 -2.43097 -4.44664
upperback -2.39027 -4.11939 0.519527
thorax -11.5232 -1.63127 4.15389
lowerneck -18.7424 -4.26574 -7.58791
upperneck 0.659725 -4.71608 3.60905
head 3.3821 -2.41545 1.92094
rclavicle -2.54444e-014 2.06736e-014
rhumerus -83.0322 4.61334 -83.2548
rradius 95.4735
rwrist -9.85697
rhand -33.2781 10.9722
rfingers 7.12502
rthumb -6.48268 -18.9086
lclavicle -2.54444e-014 2.06736e-014
lhumerus -34.5939 -34.5076 85.6272
lradius 119.471
lwrist 21.2952
lhand -19.004 -12.2546
lfingers 7.12502
lthumb 7.30124 17.5995
rfemur -70.8285 -11.1974 17.1412
rtibia 60.4733
rfoot -19.8399 -3.42641
rtoes -35.8829
lfemur 7.12087 -11.8224 -22.0412
ltibia 29.8008
lfoot 26.528 -6.85312
ltoes -8.39985
180
root 0.594608 16.1838 -31.0839 -155.001 -13.0685 169.609
lowerback 16.5396 -2.34695 -4.27036
upperback -2.27651 -3.96661 0.593872
thorax -11.4955 -1.57092 4.10284
lowerneck -18.9288 -4.00343 -7.23282
upperneck 0.0501236 -4.47552 3.23621
head 3.18969 -2.33593 1.77303
rclavicle 6.75868e-015 -1.11319e-014
rhumerus -80.8908 3.51794 -82.6452
rradius 93.0755
rwrist -10.8489
rhand -33.4228 10.0281
rfingers 7.12502
rthumb -6.62238 -19.8484
lclavicle 6.75868e-015 -1.11319e-014
lhumerus -35.8381 -32.4373 87.8305
lradius 115.475
lwrist 20.7724
lhand -19.1047 -12.4493
lfingers 7.12502
lthumb 7.20411 17.4081
rfemur -70.2693 -9.99281 16.9268
rtibia 61.8488
rfoot -19.9798 -4.45071
rtoes -34.366
lfemur 5.81028 -10.9785 -22.3281
ltibia 32.9105
lfoot 25.8598 -5.56859
ltoes -4.12519
181
root 0.560915 16.1901 -31.5071 -154.837 -12.1335 169.965
lowerback 16.7397 -2.25242 -4.0313
upperback -2.12666 -3.78432 0.712117
thorax -11.4659 -1.49978 4.05924
lowerneck -19.0439 -3.7127 -6.85876
upperneck -0.703875 -4.22616 2.89612
head 2.94446 -2.25547 1.63533
rclavicle 4.6118e-014 2.38542e-015
rhumerus -78.4061 2.4275 -82.065
rradius 90.464
rwrist -11.5856
rhand -33.4796 8.88543
rfingers 7.12502
rthumb -6.67722 -20.9893
lclavicle 4.6118e-014 2.38542e-015
lhumerus -36.725 -29.8954 89.8393
lradius 111.335
lwrist 19.8183
lhand -19.3208 -12.7722
lfingers 7.12502
lthumb 6.99549 17.0922
rfemur -69.6007 -8.69939 16.8705
rtibia 63.0883
rfoot -20.144 -5.86316
rtoes -32.5135
lfemur 4.25243 -10.081 -22.4491
ltibia 36.3862
lfoot 24.8896 -4.33889
ltoes -0.347253
182
root 0.528313 16.1977 -31.9281 -154.707 -11.2209 170.499
lowerback 16.9773 -2.15223 -3.70431
upperback -1.96301 -3.57326 0.871619
thorax -11.4468 -1.41922 4.00501
lowerneck -18.7878 -3.38867 -6.47203
upperneck -2.00558 -3.9788 2.48929
head 2.83366 -2.18624 1.64511
rclavicle 2.74323e-014 -5.56597e-015
rhumerus -75.621 1.35808 -81.5524
rradius 87.6531
rwrist -12.172
rhand -33.4478 7.51993
rfingers 7.12502
rthumb -6.64647 -22.3558
lclavicle 2.74323e-014 -5.56597e-015
lhumerus -37.2661 -26.9383 91.5834
lradius 107.02
lwrist 18.5774
lhand -19.759 -13.2013
lfingers 7.12502
lthumb 6.57249 16.6767
rfemur -68.7962 -7.3356 17.0262
rtibia 64.1023
rfoot -20.2438 -7.47967
rtoes -30.5412
lfemur 2.44023 -9.14571 -22.3691
ltibia 40.1261
lfoot 23.7814 -3.52822
ltoes 2.56683
183
root 0.49671 16.2083 -32.3479 -154.586 -10.3528 171.188
lowerback 17.241 -2.05406 -3.29116
upperback -1.80333 -3.34486 1.06137
thorax -11.4505 -1.33437 3.93148
lowerneck -18.7807 -3.08894 -6.1271
upperneck -2.83474 -3.7467 2.33682
head 2.51299 -2.11029 1.55115
rclavicle 3.22031e-014 -1.74931e-014
rhumerus -72.5724 0.336035 -81.1466
rradius 84.6757
rwrist -12.7902
rhand -33.3073 5.97299
rfingers 7.12502
rthumb -6.51091 -23.9069
lclavicle 3.22031e-014 -1.74931e-014
lhumerus -37.4766 -23.6452 93.0008
lradius 102.485
lwrist 17.2554
lhand -20.4421 -13.6396
lfingers 7.12502
lthumb 5.91304 16.2579
rfemur -67.8446 -5.95489 17.3939
rtibia 64.8638
rfoot -20.4247 -9.01587
rtoes -28.5707
lfemur 0.369744 -8.19145 -22.089
ltibia 44.0612
lfoot 22.6749 -3.33783
ltoes 4.63235
